<svg xmlns="http://www.w3.org/2000/svg" xmlns:xlink="http://www.w3.org/1999/xlink" width="500" zoomAndPan="magnify" viewBox="0 0 375 374.999991" height="500" preserveAspectRatio="xMidYMid meet" version="1.0"><defs><clipPath id="90f3d97dba"><path d="M 6.054688 13.980469 L 369.054688 13.980469 L 369.054688 375 L 6.054688 375 Z M 6.054688 13.980469 " clip-rule="nonzero"/></clipPath><clipPath id="60da1f14ca"><path d="M 369.054688 195.480469 C 369.054688 198.449219 368.984375 201.417969 368.835938 204.386719 C 368.691406 207.351562 368.472656 210.3125 368.183594 213.269531 C 367.890625 216.226562 367.527344 219.171875 367.09375 222.113281 C 366.65625 225.050781 366.148438 227.976562 365.570312 230.890625 C 364.988281 233.800781 364.339844 236.699219 363.617188 239.582031 C 362.894531 242.460938 362.101562 245.324219 361.242188 248.167969 C 360.378906 251.007812 359.449219 253.828125 358.445312 256.625 C 357.445312 259.421875 356.378906 262.191406 355.242188 264.9375 C 354.105469 267.679688 352.902344 270.394531 351.628906 273.082031 C 350.359375 275.765625 349.023438 278.417969 347.625 281.039062 C 346.226562 283.65625 344.761719 286.242188 343.234375 288.789062 C 341.707031 291.335938 340.117188 293.847656 338.46875 296.316406 C 336.816406 298.785156 335.109375 301.214844 333.339844 303.597656 C 331.570312 305.984375 329.742188 308.328125 327.859375 310.621094 C 325.972656 312.917969 324.035156 315.167969 322.039062 317.367188 C 320.042969 319.570312 317.996094 321.71875 315.894531 323.820312 C 313.796875 325.921875 311.644531 327.96875 309.445312 329.960938 C 307.242188 331.957031 304.996094 333.898438 302.699219 335.78125 C 300.402344 337.664062 298.0625 339.492188 295.675781 341.261719 C 293.289062 343.03125 290.863281 344.742188 288.390625 346.390625 C 285.921875 348.042969 283.414062 349.628906 280.867188 351.15625 C 278.316406 352.683594 275.734375 354.148438 273.113281 355.546875 C 270.496094 356.949219 267.84375 358.285156 265.15625 359.554688 C 262.472656 360.824219 259.757812 362.027344 257.011719 363.164062 C 254.269531 364.300781 251.5 365.371094 248.703125 366.371094 C 245.90625 367.371094 243.085938 368.300781 240.242188 369.164062 C 237.402344 370.027344 234.539062 370.820312 231.65625 371.539062 C 228.777344 372.261719 225.878906 372.914062 222.964844 373.492188 C 220.050781 374.070312 217.125 374.578125 214.1875 375.015625 C 211.25 375.453125 208.300781 375.816406 205.347656 376.105469 C 202.390625 376.398438 199.429688 376.617188 196.460938 376.761719 C 193.496094 376.90625 190.527344 376.980469 187.554688 376.980469 C 184.585938 376.980469 181.617188 376.90625 178.652344 376.761719 C 175.683594 376.617188 172.722656 376.398438 169.765625 376.105469 C 166.808594 375.816406 163.863281 375.453125 160.925781 375.015625 C 157.988281 374.578125 155.0625 374.070312 152.148438 373.492188 C 149.234375 372.914062 146.335938 372.261719 143.457031 371.539062 C 140.574219 370.820312 137.710938 370.027344 134.871094 369.164062 C 132.027344 368.300781 129.207031 367.371094 126.410156 366.371094 C 123.613281 365.371094 120.84375 364.300781 118.097656 363.164062 C 115.355469 362.027344 112.640625 360.824219 109.957031 359.554688 C 107.269531 358.285156 104.617188 356.949219 101.996094 355.546875 C 99.378906 354.148438 96.792969 352.683594 94.246094 351.15625 C 91.699219 349.628906 89.191406 348.042969 86.71875 346.390625 C 84.25 344.742188 81.824219 343.03125 79.4375 341.261719 C 77.050781 339.492188 74.710938 337.664062 72.414062 335.78125 C 70.117188 333.898438 67.871094 331.957031 65.667969 329.960938 C 63.46875 327.96875 61.316406 325.921875 59.214844 323.820312 C 57.117188 321.71875 55.070312 319.570312 53.074219 317.367188 C 51.078125 315.167969 49.140625 312.917969 47.253906 310.621094 C 45.371094 308.328125 43.542969 305.984375 41.773438 303.597656 C 40.003906 301.214844 38.296875 298.785156 36.644531 296.316406 C 34.996094 293.847656 33.40625 291.335938 31.878906 288.789062 C 30.351562 286.242188 28.886719 283.65625 27.488281 281.039062 C 26.085938 278.417969 24.753906 275.765625 23.480469 273.082031 C 22.210938 270.394531 21.007812 267.679688 19.871094 264.9375 C 18.734375 262.191406 17.667969 259.421875 16.667969 256.625 C 15.664062 253.828125 14.734375 251.007812 13.871094 248.167969 C 13.007812 245.324219 12.21875 242.460938 11.496094 239.582031 C 10.773438 236.699219 10.125 233.800781 9.542969 230.890625 C 8.964844 227.976562 8.457031 225.050781 8.019531 222.113281 C 7.585938 219.171875 7.222656 216.226562 6.929688 213.269531 C 6.640625 210.3125 6.421875 207.351562 6.273438 204.386719 C 6.128906 201.417969 6.054688 198.449219 6.054688 195.480469 C 6.054688 192.507812 6.128906 189.542969 6.273438 186.574219 C 6.421875 183.609375 6.640625 180.644531 6.929688 177.691406 C 7.222656 174.734375 7.585938 171.785156 8.019531 168.847656 C 8.457031 165.910156 8.964844 162.984375 9.542969 160.070312 C 10.125 157.15625 10.773438 154.261719 11.496094 151.378906 C 12.21875 148.496094 13.007812 145.636719 13.871094 142.792969 C 14.734375 139.949219 15.664062 137.132812 16.667969 134.335938 C 17.667969 131.539062 18.734375 128.765625 19.871094 126.023438 C 21.007812 123.277344 22.210938 120.5625 23.480469 117.878906 C 24.753906 115.195312 26.085938 112.542969 27.488281 109.921875 C 28.886719 107.300781 30.351562 104.71875 31.878906 102.171875 C 33.40625 99.621094 34.996094 97.113281 36.644531 94.644531 C 38.296875 92.175781 40.003906 89.746094 41.773438 87.359375 C 43.542969 84.976562 45.371094 82.632812 47.253906 80.335938 C 49.140625 78.042969 51.078125 75.792969 53.074219 73.59375 C 55.070312 71.390625 57.117188 69.242188 59.214844 67.140625 C 61.316406 65.039062 63.46875 62.992188 65.667969 60.996094 C 67.871094 59.003906 70.117188 57.0625 72.414062 55.179688 C 74.710938 53.292969 77.050781 51.46875 79.4375 49.699219 C 81.824219 47.929688 84.25 46.21875 86.71875 44.566406 C 89.191406 42.917969 91.699219 41.328125 94.246094 39.800781 C 96.792969 38.273438 99.378906 36.8125 101.996094 35.410156 C 104.617188 34.011719 107.269531 32.675781 109.957031 31.40625 C 112.640625 30.136719 115.355469 28.933594 118.097656 27.796875 C 120.84375 26.660156 123.613281 25.589844 126.410156 24.589844 C 129.207031 23.589844 132.027344 22.65625 134.871094 21.796875 C 137.710938 20.933594 140.574219 20.140625 143.457031 19.417969 C 146.335938 18.699219 149.234375 18.046875 152.148438 17.46875 C 155.0625 16.886719 157.988281 16.378906 160.925781 15.945312 C 163.863281 15.507812 166.808594 15.144531 169.765625 14.855469 C 172.722656 14.5625 175.683594 14.34375 178.652344 14.199219 C 181.617188 14.054688 184.585938 13.980469 187.554688 13.980469 C 190.527344 13.980469 193.496094 14.054688 196.460938 14.199219 C 199.429688 14.34375 202.390625 14.5625 205.347656 14.855469 C 208.300781 15.144531 211.25 15.507812 214.1875 15.945312 C 217.125 16.378906 220.050781 16.886719 222.964844 17.46875 C 225.878906 18.046875 228.777344 18.699219 231.65625 19.417969 C 234.539062 20.140625 237.402344 20.933594 240.242188 21.796875 C 243.085938 22.65625 245.90625 23.589844 248.703125 24.589844 C 251.5 25.589844 254.269531 26.660156 257.011719 27.796875 C 259.757812 28.933594 262.472656 30.136719 265.15625 31.40625 C 267.84375 32.675781 270.496094 34.011719 273.113281 35.410156 C 275.734375 36.8125 278.316406 38.273438 280.867188 39.800781 C 283.414062 41.328125 285.921875 42.917969 288.390625 44.566406 C 290.863281 46.21875 293.289062 47.929688 295.675781 49.699219 C 298.0625 51.46875 300.402344 53.292969 302.699219 55.179688 C 304.996094 57.0625 307.242188 59.003906 309.445312 60.996094 C 311.644531 62.992188 313.796875 65.039062 315.894531 67.140625 C 317.996094 69.242188 320.042969 71.390625 322.039062 73.59375 C 324.035156 75.792969 325.972656 78.042969 327.859375 80.335938 C 329.742188 82.632812 331.570312 84.976562 333.339844 87.359375 C 335.109375 89.746094 336.816406 92.175781 338.46875 94.644531 C 340.117188 97.113281 341.707031 99.621094 343.234375 102.171875 C 344.761719 104.71875 346.226562 107.300781 347.625 109.921875 C 349.023438 112.542969 350.359375 115.195312 351.628906 117.878906 C 352.902344 120.5625 354.105469 123.277344 355.242188 126.023438 C 356.378906 128.765625 357.445312 131.539062 358.445312 134.335938 C 359.449219 137.132812 360.378906 139.949219 361.242188 142.792969 C 362.101562 145.636719 362.894531 148.496094 363.617188 151.378906 C 364.339844 154.261719 364.988281 157.15625 365.570312 160.070312 C 366.148438 162.984375 366.65625 165.910156 367.09375 168.847656 C 367.527344 171.785156 367.890625 174.734375 368.183594 177.691406 C 368.472656 180.644531 368.691406 183.609375 368.835938 186.574219 C 368.984375 189.542969 369.054688 192.507812 369.054688 195.480469 Z M 369.054688 195.480469 " clip-rule="nonzero"/></clipPath><linearGradient x1="-0.00000000542391" gradientTransform="matrix(362.999991, 0, 0, 362.999991, 6.056447, 13.9801)" y1="-0.00000000537073" x2="1.002175" gradientUnits="userSpaceOnUse" y2="0.992349" id="05b54c1a10"><stop stop-opacity="1" stop-color="rgb(0%, 76.899719%, 79.998779%)" offset="0"/><stop stop-opacity="1" stop-color="rgb(0.186157%, 76.66626%, 80.041504%)" offset="0.00390625"/><stop stop-opacity="1" stop-color="rgb(0.37384%, 76.434326%, 80.084229%)" offset="0.0078125"/><stop stop-opacity="1" stop-color="rgb(0.559998%, 76.200867%, 80.125427%)" offset="0.0117188"/><stop stop-opacity="1" stop-color="rgb(0.747681%, 75.968933%, 80.168152%)" offset="0.015625"/><stop stop-opacity="1" stop-color="rgb(0.933838%, 75.735474%, 80.210876%)" offset="0.0195312"/><stop stop-opacity="1" stop-color="rgb(1.121521%, 75.50354%, 80.253601%)" offset="0.0234375"/><stop stop-opacity="1" stop-color="rgb(1.307678%, 75.271606%, 80.2948%)" offset="0.0273438"/><stop stop-opacity="1" stop-color="rgb(1.495361%, 75.039673%, 80.337524%)" offset="0.03125"/><stop stop-opacity="1" stop-color="rgb(1.683044%, 74.806213%, 80.380249%)" offset="0.0351562"/><stop stop-opacity="1" stop-color="rgb(1.870728%, 74.57428%, 80.422974%)" offset="0.0390625"/><stop stop-opacity="1" stop-color="rgb(2.056885%, 74.34082%, 80.464172%)" offset="0.0429687"/><stop stop-opacity="1" stop-color="rgb(2.244568%, 74.108887%, 80.506897%)" offset="0.046875"/><stop stop-opacity="1" stop-color="rgb(2.430725%, 73.875427%, 80.549622%)" offset="0.0507812"/><stop stop-opacity="1" stop-color="rgb(2.618408%, 73.643494%, 80.592346%)" offset="0.0546875"/><stop stop-opacity="1" stop-color="rgb(2.804565%, 73.41156%, 80.633545%)" offset="0.0585937"/><stop stop-opacity="1" stop-color="rgb(2.992249%, 73.179626%, 80.67627%)" offset="0.0625"/><stop stop-opacity="1" stop-color="rgb(3.179932%, 72.946167%, 80.718994%)" offset="0.0664062"/><stop stop-opacity="1" stop-color="rgb(3.367615%, 72.714233%, 80.761719%)" offset="0.0703125"/><stop stop-opacity="1" stop-color="rgb(3.553772%, 72.480774%, 80.802917%)" offset="0.0742187"/><stop stop-opacity="1" stop-color="rgb(3.741455%, 72.24884%, 80.845642%)" offset="0.078125"/><stop stop-opacity="1" stop-color="rgb(3.927612%, 72.015381%, 80.888367%)" offset="0.0820312"/><stop stop-opacity="1" stop-color="rgb(4.115295%, 71.783447%, 80.931091%)" offset="0.0859375"/><stop stop-opacity="1" stop-color="rgb(4.301453%, 71.549988%, 80.97229%)" offset="0.0898437"/><stop stop-opacity="1" stop-color="rgb(4.489136%, 71.318054%, 81.015015%)" offset="0.09375"/><stop stop-opacity="1" stop-color="rgb(4.675293%, 71.086121%, 81.057739%)" offset="0.0976562"/><stop stop-opacity="1" stop-color="rgb(4.862976%, 70.854187%, 81.100464%)" offset="0.101562"/><stop stop-opacity="1" stop-color="rgb(5.050659%, 70.620728%, 81.141663%)" offset="0.105469"/><stop stop-opacity="1" stop-color="rgb(5.238342%, 70.388794%, 81.184387%)" offset="0.109375"/><stop stop-opacity="1" stop-color="rgb(5.4245%, 70.155334%, 81.227112%)" offset="0.113281"/><stop stop-opacity="1" stop-color="rgb(5.612183%, 69.923401%, 81.269836%)" offset="0.117187"/><stop stop-opacity="1" stop-color="rgb(5.79834%, 69.689941%, 81.311035%)" offset="0.121094"/><stop stop-opacity="1" stop-color="rgb(5.986023%, 69.458008%, 81.35376%)" offset="0.125"/><stop stop-opacity="1" stop-color="rgb(6.17218%, 69.226074%, 81.396484%)" offset="0.128906"/><stop stop-opacity="1" stop-color="rgb(6.359863%, 68.994141%, 81.439209%)" offset="0.132812"/><stop stop-opacity="1" stop-color="rgb(6.547546%, 68.760681%, 81.480408%)" offset="0.136719"/><stop stop-opacity="1" stop-color="rgb(6.735229%, 68.528748%, 81.523132%)" offset="0.140625"/><stop stop-opacity="1" stop-color="rgb(6.921387%, 68.295288%, 81.565857%)" offset="0.144531"/><stop stop-opacity="1" stop-color="rgb(7.10907%, 68.063354%, 81.608582%)" offset="0.148438"/><stop stop-opacity="1" stop-color="rgb(7.295227%, 67.829895%, 81.64978%)" offset="0.152344"/><stop stop-opacity="1" stop-color="rgb(7.48291%, 67.597961%, 81.692505%)" offset="0.15625"/><stop stop-opacity="1" stop-color="rgb(7.669067%, 67.366028%, 81.735229%)" offset="0.160156"/><stop stop-opacity="1" stop-color="rgb(7.85675%, 67.134094%, 81.777954%)" offset="0.164062"/><stop stop-opacity="1" stop-color="rgb(8.044434%, 66.900635%, 81.819153%)" offset="0.167969"/><stop stop-opacity="1" stop-color="rgb(8.232117%, 66.668701%, 81.861877%)" offset="0.171875"/><stop stop-opacity="1" stop-color="rgb(8.418274%, 66.435242%, 81.904602%)" offset="0.175781"/><stop stop-opacity="1" stop-color="rgb(8.605957%, 66.203308%, 81.947327%)" offset="0.179688"/><stop stop-opacity="1" stop-color="rgb(8.792114%, 65.969849%, 81.988525%)" offset="0.183594"/><stop stop-opacity="1" stop-color="rgb(8.979797%, 65.737915%, 82.03125%)" offset="0.1875"/><stop stop-opacity="1" stop-color="rgb(9.165955%, 65.504456%, 82.073975%)" offset="0.191406"/><stop stop-opacity="1" stop-color="rgb(9.353638%, 65.272522%, 82.116699%)" offset="0.195312"/><stop stop-opacity="1" stop-color="rgb(9.539795%, 65.040588%, 82.157898%)" offset="0.199219"/><stop stop-opacity="1" stop-color="rgb(9.727478%, 64.808655%, 82.200623%)" offset="0.203125"/><stop stop-opacity="1" stop-color="rgb(9.915161%, 64.575195%, 82.243347%)" offset="0.207031"/><stop stop-opacity="1" stop-color="rgb(10.102844%, 64.343262%, 82.286072%)" offset="0.210938"/><stop stop-opacity="1" stop-color="rgb(10.289001%, 64.109802%, 82.327271%)" offset="0.214844"/><stop stop-opacity="1" stop-color="rgb(10.476685%, 63.877869%, 82.369995%)" offset="0.21875"/><stop stop-opacity="1" stop-color="rgb(10.662842%, 63.644409%, 82.41272%)" offset="0.222656"/><stop stop-opacity="1" stop-color="rgb(10.850525%, 63.412476%, 82.455444%)" offset="0.226562"/><stop stop-opacity="1" stop-color="rgb(11.036682%, 63.180542%, 82.496643%)" offset="0.230469"/><stop stop-opacity="1" stop-color="rgb(11.224365%, 62.948608%, 82.539368%)" offset="0.234375"/><stop stop-opacity="1" stop-color="rgb(11.412048%, 62.715149%, 82.582092%)" offset="0.238281"/><stop stop-opacity="1" stop-color="rgb(11.599731%, 62.483215%, 82.624817%)" offset="0.242188"/><stop stop-opacity="1" stop-color="rgb(11.785889%, 62.249756%, 82.666016%)" offset="0.246094"/><stop stop-opacity="1" stop-color="rgb(11.973572%, 62.017822%, 82.70874%)" offset="0.25"/><stop stop-opacity="1" stop-color="rgb(12.159729%, 61.784363%, 82.751465%)" offset="0.253906"/><stop stop-opacity="1" stop-color="rgb(12.347412%, 61.552429%, 82.794189%)" offset="0.257812"/><stop stop-opacity="1" stop-color="rgb(12.533569%, 61.320496%, 82.835388%)" offset="0.261719"/><stop stop-opacity="1" stop-color="rgb(12.721252%, 61.088562%, 82.878113%)" offset="0.265625"/><stop stop-opacity="1" stop-color="rgb(12.908936%, 60.855103%, 82.920837%)" offset="0.269531"/><stop stop-opacity="1" stop-color="rgb(13.096619%, 60.623169%, 82.963562%)" offset="0.273438"/><stop stop-opacity="1" stop-color="rgb(13.282776%, 60.389709%, 83.004761%)" offset="0.277344"/><stop stop-opacity="1" stop-color="rgb(13.470459%, 60.157776%, 83.047485%)" offset="0.28125"/><stop stop-opacity="1" stop-color="rgb(13.656616%, 59.924316%, 83.09021%)" offset="0.285156"/><stop stop-opacity="1" stop-color="rgb(13.844299%, 59.692383%, 83.132935%)" offset="0.289062"/><stop stop-opacity="1" stop-color="rgb(14.030457%, 59.458923%, 83.174133%)" offset="0.292969"/><stop stop-opacity="1" stop-color="rgb(14.21814%, 59.22699%, 83.216858%)" offset="0.296875"/><stop stop-opacity="1" stop-color="rgb(14.404297%, 58.995056%, 83.259583%)" offset="0.300781"/><stop stop-opacity="1" stop-color="rgb(14.59198%, 58.763123%, 83.302307%)" offset="0.304688"/><stop stop-opacity="1" stop-color="rgb(14.779663%, 58.529663%, 83.343506%)" offset="0.308594"/><stop stop-opacity="1" stop-color="rgb(14.967346%, 58.297729%, 83.38623%)" offset="0.3125"/><stop stop-opacity="1" stop-color="rgb(15.153503%, 58.06427%, 83.428955%)" offset="0.316406"/><stop stop-opacity="1" stop-color="rgb(15.341187%, 57.832336%, 83.47168%)" offset="0.320312"/><stop stop-opacity="1" stop-color="rgb(15.527344%, 57.598877%, 83.512878%)" offset="0.324219"/><stop stop-opacity="1" stop-color="rgb(15.715027%, 57.366943%, 83.555603%)" offset="0.328125"/><stop stop-opacity="1" stop-color="rgb(15.901184%, 57.13501%, 83.598328%)" offset="0.332031"/><stop stop-opacity="1" stop-color="rgb(16.088867%, 56.903076%, 83.641052%)" offset="0.335938"/><stop stop-opacity="1" stop-color="rgb(16.27655%, 56.669617%, 83.682251%)" offset="0.339844"/><stop stop-opacity="1" stop-color="rgb(16.464233%, 56.437683%, 83.724976%)" offset="0.34375"/><stop stop-opacity="1" stop-color="rgb(16.650391%, 56.204224%, 83.7677%)" offset="0.347656"/><stop stop-opacity="1" stop-color="rgb(16.838074%, 55.97229%, 83.810425%)" offset="0.351562"/><stop stop-opacity="1" stop-color="rgb(17.024231%, 55.738831%, 83.853149%)" offset="0.355469"/><stop stop-opacity="1" stop-color="rgb(17.211914%, 55.506897%, 83.895874%)" offset="0.359375"/><stop stop-opacity="1" stop-color="rgb(17.398071%, 55.274963%, 83.937073%)" offset="0.363281"/><stop stop-opacity="1" stop-color="rgb(17.585754%, 55.04303%, 83.979797%)" offset="0.367188"/><stop stop-opacity="1" stop-color="rgb(17.771912%, 54.80957%, 84.022522%)" offset="0.371094"/><stop stop-opacity="1" stop-color="rgb(17.959595%, 54.577637%, 84.065247%)" offset="0.375"/><stop stop-opacity="1" stop-color="rgb(18.147278%, 54.344177%, 84.106445%)" offset="0.378906"/><stop stop-opacity="1" stop-color="rgb(18.334961%, 54.112244%, 84.14917%)" offset="0.382812"/><stop stop-opacity="1" stop-color="rgb(18.521118%, 53.878784%, 84.191895%)" offset="0.386719"/><stop stop-opacity="1" stop-color="rgb(18.708801%, 53.646851%, 84.234619%)" offset="0.390625"/><stop stop-opacity="1" stop-color="rgb(18.894958%, 53.413391%, 84.275818%)" offset="0.394531"/><stop stop-opacity="1" stop-color="rgb(19.082642%, 53.181458%, 84.318542%)" offset="0.398438"/><stop stop-opacity="1" stop-color="rgb(19.268799%, 52.949524%, 84.361267%)" offset="0.402344"/><stop stop-opacity="1" stop-color="rgb(19.456482%, 52.71759%, 84.403992%)" offset="0.40625"/><stop stop-opacity="1" stop-color="rgb(19.644165%, 52.484131%, 84.44519%)" offset="0.410156"/><stop stop-opacity="1" stop-color="rgb(19.831848%, 52.252197%, 84.487915%)" offset="0.414062"/><stop stop-opacity="1" stop-color="rgb(20.018005%, 52.018738%, 84.53064%)" offset="0.417969"/><stop stop-opacity="1" stop-color="rgb(20.205688%, 51.786804%, 84.573364%)" offset="0.421875"/><stop stop-opacity="1" stop-color="rgb(20.391846%, 51.553345%, 84.614563%)" offset="0.425781"/><stop stop-opacity="1" stop-color="rgb(20.579529%, 51.321411%, 84.657288%)" offset="0.429688"/><stop stop-opacity="1" stop-color="rgb(20.765686%, 51.089478%, 84.700012%)" offset="0.433594"/><stop stop-opacity="1" stop-color="rgb(20.953369%, 50.857544%, 84.742737%)" offset="0.4375"/><stop stop-opacity="1" stop-color="rgb(21.141052%, 50.624084%, 84.783936%)" offset="0.441406"/><stop stop-opacity="1" stop-color="rgb(21.328735%, 50.392151%, 84.82666%)" offset="0.445312"/><stop stop-opacity="1" stop-color="rgb(21.514893%, 50.158691%, 84.869385%)" offset="0.449219"/><stop stop-opacity="1" stop-color="rgb(21.702576%, 49.926758%, 84.912109%)" offset="0.453125"/><stop stop-opacity="1" stop-color="rgb(21.888733%, 49.693298%, 84.953308%)" offset="0.457031"/><stop stop-opacity="1" stop-color="rgb(22.076416%, 49.461365%, 84.996033%)" offset="0.460938"/><stop stop-opacity="1" stop-color="rgb(22.262573%, 49.227905%, 85.038757%)" offset="0.464844"/><stop stop-opacity="1" stop-color="rgb(22.450256%, 48.995972%, 85.081482%)" offset="0.46875"/><stop stop-opacity="1" stop-color="rgb(22.636414%, 48.764038%, 85.122681%)" offset="0.472656"/><stop stop-opacity="1" stop-color="rgb(22.824097%, 48.532104%, 85.165405%)" offset="0.476562"/><stop stop-opacity="1" stop-color="rgb(23.01178%, 48.298645%, 85.20813%)" offset="0.480469"/><stop stop-opacity="1" stop-color="rgb(23.199463%, 48.066711%, 85.250854%)" offset="0.484375"/><stop stop-opacity="1" stop-color="rgb(23.38562%, 47.833252%, 85.292053%)" offset="0.488281"/><stop stop-opacity="1" stop-color="rgb(23.573303%, 47.601318%, 85.334778%)" offset="0.492188"/><stop stop-opacity="1" stop-color="rgb(23.75946%, 47.367859%, 85.377502%)" offset="0.496094"/><stop stop-opacity="1" stop-color="rgb(23.947144%, 47.135925%, 85.420227%)" offset="0.5"/><stop stop-opacity="1" stop-color="rgb(24.133301%, 46.903992%, 85.461426%)" offset="0.503906"/><stop stop-opacity="1" stop-color="rgb(24.320984%, 46.672058%, 85.50415%)" offset="0.507812"/><stop stop-opacity="1" stop-color="rgb(24.508667%, 46.438599%, 85.546875%)" offset="0.511719"/><stop stop-opacity="1" stop-color="rgb(24.69635%, 46.206665%, 85.5896%)" offset="0.515625"/><stop stop-opacity="1" stop-color="rgb(24.882507%, 45.973206%, 85.630798%)" offset="0.519531"/><stop stop-opacity="1" stop-color="rgb(25.07019%, 45.741272%, 85.673523%)" offset="0.523438"/><stop stop-opacity="1" stop-color="rgb(25.256348%, 45.507812%, 85.716248%)" offset="0.527344"/><stop stop-opacity="1" stop-color="rgb(25.444031%, 45.275879%, 85.758972%)" offset="0.53125"/><stop stop-opacity="1" stop-color="rgb(25.630188%, 45.043945%, 85.800171%)" offset="0.535156"/><stop stop-opacity="1" stop-color="rgb(25.817871%, 44.812012%, 85.842896%)" offset="0.539062"/><stop stop-opacity="1" stop-color="rgb(26.005554%, 44.578552%, 85.88562%)" offset="0.542969"/><stop stop-opacity="1" stop-color="rgb(26.193237%, 44.346619%, 85.928345%)" offset="0.546875"/><stop stop-opacity="1" stop-color="rgb(26.379395%, 44.113159%, 85.969543%)" offset="0.550781"/><stop stop-opacity="1" stop-color="rgb(26.567078%, 43.881226%, 86.012268%)" offset="0.554688"/><stop stop-opacity="1" stop-color="rgb(26.753235%, 43.647766%, 86.054993%)" offset="0.558594"/><stop stop-opacity="1" stop-color="rgb(26.940918%, 43.415833%, 86.097717%)" offset="0.5625"/><stop stop-opacity="1" stop-color="rgb(27.127075%, 43.182373%, 86.138916%)" offset="0.566406"/><stop stop-opacity="1" stop-color="rgb(27.314758%, 42.950439%, 86.181641%)" offset="0.570312"/><stop stop-opacity="1" stop-color="rgb(27.500916%, 42.718506%, 86.224365%)" offset="0.574219"/><stop stop-opacity="1" stop-color="rgb(27.688599%, 42.486572%, 86.26709%)" offset="0.578125"/><stop stop-opacity="1" stop-color="rgb(27.876282%, 42.253113%, 86.308289%)" offset="0.582031"/><stop stop-opacity="1" stop-color="rgb(28.063965%, 42.021179%, 86.351013%)" offset="0.585938"/><stop stop-opacity="1" stop-color="rgb(28.250122%, 41.78772%, 86.393738%)" offset="0.589844"/><stop stop-opacity="1" stop-color="rgb(28.437805%, 41.555786%, 86.436462%)" offset="0.59375"/><stop stop-opacity="1" stop-color="rgb(28.623962%, 41.322327%, 86.477661%)" offset="0.597656"/><stop stop-opacity="1" stop-color="rgb(28.811646%, 41.090393%, 86.520386%)" offset="0.601562"/><stop stop-opacity="1" stop-color="rgb(28.997803%, 40.858459%, 86.56311%)" offset="0.605469"/><stop stop-opacity="1" stop-color="rgb(29.185486%, 40.626526%, 86.605835%)" offset="0.609375"/><stop stop-opacity="1" stop-color="rgb(29.373169%, 40.393066%, 86.647034%)" offset="0.613281"/><stop stop-opacity="1" stop-color="rgb(29.560852%, 40.161133%, 86.689758%)" offset="0.617188"/><stop stop-opacity="1" stop-color="rgb(29.747009%, 39.927673%, 86.732483%)" offset="0.621094"/><stop stop-opacity="1" stop-color="rgb(29.934692%, 39.69574%, 86.775208%)" offset="0.625"/><stop stop-opacity="1" stop-color="rgb(30.12085%, 39.46228%, 86.816406%)" offset="0.628906"/><stop stop-opacity="1" stop-color="rgb(30.308533%, 39.230347%, 86.859131%)" offset="0.632812"/><stop stop-opacity="1" stop-color="rgb(30.49469%, 38.998413%, 86.901855%)" offset="0.636719"/><stop stop-opacity="1" stop-color="rgb(30.682373%, 38.766479%, 86.94458%)" offset="0.640625"/><stop stop-opacity="1" stop-color="rgb(30.86853%, 38.53302%, 86.985779%)" offset="0.644531"/><stop stop-opacity="1" stop-color="rgb(31.056213%, 38.301086%, 87.028503%)" offset="0.648438"/><stop stop-opacity="1" stop-color="rgb(31.243896%, 38.067627%, 87.071228%)" offset="0.652344"/><stop stop-opacity="1" stop-color="rgb(31.43158%, 37.835693%, 87.113953%)" offset="0.65625"/><stop stop-opacity="1" stop-color="rgb(31.617737%, 37.602234%, 87.155151%)" offset="0.660156"/><stop stop-opacity="1" stop-color="rgb(31.80542%, 37.3703%, 87.197876%)" offset="0.664062"/><stop stop-opacity="1" stop-color="rgb(31.991577%, 37.136841%, 87.240601%)" offset="0.667969"/><stop stop-opacity="1" stop-color="rgb(32.17926%, 36.904907%, 87.283325%)" offset="0.671875"/><stop stop-opacity="1" stop-color="rgb(32.365417%, 36.672974%, 87.324524%)" offset="0.675781"/><stop stop-opacity="1" stop-color="rgb(32.553101%, 36.44104%, 87.367249%)" offset="0.679688"/><stop stop-opacity="1" stop-color="rgb(32.740784%, 36.207581%, 87.409973%)" offset="0.683594"/><stop stop-opacity="1" stop-color="rgb(32.928467%, 35.975647%, 87.452698%)" offset="0.6875"/><stop stop-opacity="1" stop-color="rgb(33.114624%, 35.742188%, 87.493896%)" offset="0.691406"/><stop stop-opacity="1" stop-color="rgb(33.302307%, 35.510254%, 87.536621%)" offset="0.695312"/><stop stop-opacity="1" stop-color="rgb(33.488464%, 35.276794%, 87.579346%)" offset="0.699219"/><stop stop-opacity="1" stop-color="rgb(33.676147%, 35.044861%, 87.62207%)" offset="0.703125"/><stop stop-opacity="1" stop-color="rgb(33.862305%, 34.812927%, 87.663269%)" offset="0.707031"/><stop stop-opacity="1" stop-color="rgb(34.049988%, 34.580994%, 87.705994%)" offset="0.710938"/><stop stop-opacity="1" stop-color="rgb(34.237671%, 34.347534%, 87.748718%)" offset="0.714844"/><stop stop-opacity="1" stop-color="rgb(34.425354%, 34.115601%, 87.791443%)" offset="0.71875"/><stop stop-opacity="1" stop-color="rgb(34.611511%, 33.882141%, 87.832642%)" offset="0.722656"/><stop stop-opacity="1" stop-color="rgb(34.799194%, 33.650208%, 87.875366%)" offset="0.726562"/><stop stop-opacity="1" stop-color="rgb(34.985352%, 33.416748%, 87.918091%)" offset="0.730469"/><stop stop-opacity="1" stop-color="rgb(35.173035%, 33.184814%, 87.960815%)" offset="0.734375"/><stop stop-opacity="1" stop-color="rgb(35.359192%, 32.952881%, 88.002014%)" offset="0.738281"/><stop stop-opacity="1" stop-color="rgb(35.546875%, 32.720947%, 88.044739%)" offset="0.742188"/><stop stop-opacity="1" stop-color="rgb(35.733032%, 32.487488%, 88.087463%)" offset="0.746094"/><stop stop-opacity="1" stop-color="rgb(35.920715%, 32.255554%, 88.130188%)" offset="0.75"/><stop stop-opacity="1" stop-color="rgb(36.108398%, 32.022095%, 88.171387%)" offset="0.753906"/><stop stop-opacity="1" stop-color="rgb(36.296082%, 31.790161%, 88.214111%)" offset="0.757812"/><stop stop-opacity="1" stop-color="rgb(36.482239%, 31.556702%, 88.256836%)" offset="0.761719"/><stop stop-opacity="1" stop-color="rgb(36.669922%, 31.324768%, 88.299561%)" offset="0.765625"/><stop stop-opacity="1" stop-color="rgb(36.856079%, 31.091309%, 88.340759%)" offset="0.769531"/><stop stop-opacity="1" stop-color="rgb(37.043762%, 30.859375%, 88.383484%)" offset="0.773438"/><stop stop-opacity="1" stop-color="rgb(37.229919%, 30.627441%, 88.426208%)" offset="0.777344"/><stop stop-opacity="1" stop-color="rgb(37.417603%, 30.395508%, 88.468933%)" offset="0.78125"/><stop stop-opacity="1" stop-color="rgb(37.605286%, 30.162048%, 88.510132%)" offset="0.785156"/><stop stop-opacity="1" stop-color="rgb(37.792969%, 29.930115%, 88.552856%)" offset="0.789062"/><stop stop-opacity="1" stop-color="rgb(37.979126%, 29.696655%, 88.595581%)" offset="0.792969"/><stop stop-opacity="1" stop-color="rgb(38.166809%, 29.464722%, 88.638306%)" offset="0.796875"/><stop stop-opacity="1" stop-color="rgb(38.352966%, 29.231262%, 88.679504%)" offset="0.800781"/><stop stop-opacity="1" stop-color="rgb(38.540649%, 28.999329%, 88.722229%)" offset="0.804688"/><stop stop-opacity="1" stop-color="rgb(38.726807%, 28.767395%, 88.764954%)" offset="0.808594"/><stop stop-opacity="1" stop-color="rgb(38.91449%, 28.535461%, 88.807678%)" offset="0.8125"/><stop stop-opacity="1" stop-color="rgb(39.102173%, 28.302002%, 88.848877%)" offset="0.816406"/><stop stop-opacity="1" stop-color="rgb(39.289856%, 28.070068%, 88.891602%)" offset="0.820312"/><stop stop-opacity="1" stop-color="rgb(39.476013%, 27.836609%, 88.934326%)" offset="0.824219"/><stop stop-opacity="1" stop-color="rgb(39.663696%, 27.604675%, 88.977051%)" offset="0.828125"/><stop stop-opacity="1" stop-color="rgb(39.849854%, 27.371216%, 89.01825%)" offset="0.832031"/><stop stop-opacity="1" stop-color="rgb(40.037537%, 27.139282%, 89.060974%)" offset="0.835938"/><stop stop-opacity="1" stop-color="rgb(40.223694%, 26.907349%, 89.103699%)" offset="0.839844"/><stop stop-opacity="1" stop-color="rgb(40.411377%, 26.675415%, 89.146423%)" offset="0.84375"/><stop stop-opacity="1" stop-color="rgb(40.597534%, 26.441956%, 89.187622%)" offset="0.847656"/><stop stop-opacity="1" stop-color="rgb(40.785217%, 26.210022%, 89.230347%)" offset="0.851562"/><stop stop-opacity="1" stop-color="rgb(40.9729%, 25.976562%, 89.273071%)" offset="0.855469"/><stop stop-opacity="1" stop-color="rgb(41.160583%, 25.744629%, 89.315796%)" offset="0.859375"/><stop stop-opacity="1" stop-color="rgb(41.346741%, 25.511169%, 89.356995%)" offset="0.863281"/><stop stop-opacity="1" stop-color="rgb(41.534424%, 25.279236%, 89.399719%)" offset="0.867188"/><stop stop-opacity="1" stop-color="rgb(41.720581%, 25.045776%, 89.442444%)" offset="0.871094"/><stop stop-opacity="1" stop-color="rgb(41.908264%, 24.813843%, 89.485168%)" offset="0.875"/><stop stop-opacity="1" stop-color="rgb(42.094421%, 24.581909%, 89.526367%)" offset="0.878906"/><stop stop-opacity="1" stop-color="rgb(42.282104%, 24.349976%, 89.569092%)" offset="0.882812"/><stop stop-opacity="1" stop-color="rgb(42.469788%, 24.116516%, 89.611816%)" offset="0.886719"/><stop stop-opacity="1" stop-color="rgb(42.657471%, 23.884583%, 89.654541%)" offset="0.890625"/><stop stop-opacity="1" stop-color="rgb(42.843628%, 23.651123%, 89.69574%)" offset="0.894531"/><stop stop-opacity="1" stop-color="rgb(43.031311%, 23.419189%, 89.738464%)" offset="0.898438"/><stop stop-opacity="1" stop-color="rgb(43.217468%, 23.18573%, 89.781189%)" offset="0.902344"/><stop stop-opacity="1" stop-color="rgb(43.405151%, 22.953796%, 89.823914%)" offset="0.90625"/><stop stop-opacity="1" stop-color="rgb(43.591309%, 22.721863%, 89.865112%)" offset="0.910156"/><stop stop-opacity="1" stop-color="rgb(43.778992%, 22.489929%, 89.907837%)" offset="0.914062"/><stop stop-opacity="1" stop-color="rgb(43.965149%, 22.25647%, 89.950562%)" offset="0.917969"/><stop stop-opacity="1" stop-color="rgb(44.152832%, 22.024536%, 89.993286%)" offset="0.921875"/><stop stop-opacity="1" stop-color="rgb(44.340515%, 21.791077%, 90.034485%)" offset="0.925781"/><stop stop-opacity="1" stop-color="rgb(44.528198%, 21.559143%, 90.077209%)" offset="0.929688"/><stop stop-opacity="1" stop-color="rgb(44.714355%, 21.325684%, 90.119934%)" offset="0.933594"/><stop stop-opacity="1" stop-color="rgb(44.902039%, 21.09375%, 90.162659%)" offset="0.9375"/><stop stop-opacity="1" stop-color="rgb(45.088196%, 20.861816%, 90.203857%)" offset="0.941406"/><stop stop-opacity="1" stop-color="rgb(45.275879%, 20.629883%, 90.246582%)" offset="0.945312"/><stop stop-opacity="1" stop-color="rgb(45.462036%, 20.396423%, 90.289307%)" offset="0.949219"/><stop stop-opacity="1" stop-color="rgb(45.649719%, 20.16449%, 90.332031%)" offset="0.953125"/><stop stop-opacity="1" stop-color="rgb(45.837402%, 19.93103%, 90.37323%)" offset="0.957031"/><stop stop-opacity="1" stop-color="rgb(46.025085%, 19.699097%, 90.415955%)" offset="0.960938"/><stop stop-opacity="1" stop-color="rgb(46.211243%, 19.465637%, 90.458679%)" offset="0.964844"/><stop stop-opacity="1" stop-color="rgb(46.398926%, 19.233704%, 90.501404%)" offset="0.96875"/><stop stop-opacity="1" stop-color="rgb(46.585083%, 19.000244%, 90.542603%)" offset="0.972656"/><stop stop-opacity="1" stop-color="rgb(46.772766%, 18.768311%, 90.585327%)" offset="0.976562"/><stop stop-opacity="1" stop-color="rgb(46.958923%, 18.536377%, 90.628052%)" offset="0.980469"/><stop stop-opacity="1" stop-color="rgb(47.146606%, 18.304443%, 90.670776%)" offset="0.984375"/><stop stop-opacity="1" stop-color="rgb(47.33429%, 18.070984%, 90.711975%)" offset="0.988281"/><stop stop-opacity="1" stop-color="rgb(47.521973%, 17.83905%, 90.7547%)" offset="0.992188"/><stop stop-opacity="1" stop-color="rgb(47.70813%, 17.605591%, 90.797424%)" offset="0.996094"/><stop stop-opacity="1" stop-color="rgb(47.895813%, 17.373657%, 90.840149%)" offset="1"/></linearGradient><clipPath id="2bf3187efa"><path d="M 66.886719 35.226562 L 336.148438 35.226562 L 336.148438 308.492188 L 66.886719 308.492188 Z M 66.886719 35.226562 " clip-rule="nonzero"/></clipPath><clipPath id="5f01ae5c01"><path d="M 201.519531 35.226562 C 127.164062 35.226562 66.886719 96.398438 66.886719 171.859375 C 66.886719 247.320312 127.164062 308.492188 201.519531 308.492188 C 275.875 308.492188 336.148438 247.320312 336.148438 171.859375 C 336.148438 96.398438 275.875 35.226562 201.519531 35.226562 " clip-rule="nonzero"/></clipPath><clipPath id="0ad54b5a90"><path d="M 92 274 L 166 274 L 166 368 L 92 368 Z M 92 274 " clip-rule="nonzero"/></clipPath><clipPath id="29819d0a84"><path d="M 120.523438 274.996094 L 165.542969 304.605469 L 114.617188 382.03125 L 69.597656 352.425781 Z M 120.523438 274.996094 " clip-rule="nonzero"/></clipPath><clipPath id="da58ac5009"><path d="M 92.105469 367.230469 L 165.542969 304.605469 L 120.523438 274.996094 L 92.105469 367.230469 " clip-rule="nonzero"/></clipPath><clipPath id="2216083e35"><path d="M 101.605469 0 L 304.855469 0 L 304.855469 352.21875 L 101.605469 352.21875 Z M 101.605469 0 " clip-rule="nonzero"/></clipPath></defs><g clip-path="url(#90f3d97dba)"><g clip-path="url(#60da1f14ca)"><path fill="url(#05b54c1a10)" d="M 6.054688 13.980469 L 6.054688 375 L 369.054688 375 L 369.054688 13.980469 Z M 6.054688 13.980469 " fill-rule="nonzero"/></g></g><g clip-path="url(#2bf3187efa)"><g clip-path="url(#5f01ae5c01)"><path fill="#ffffff" d="M 66.886719 35.226562 L 336.148438 35.226562 L 336.148438 308.492188 L 66.886719 308.492188 Z M 66.886719 35.226562 " fill-opacity="1" fill-rule="nonzero"/></g></g><g clip-path="url(#0ad54b5a90)"><g clip-path="url(#29819d0a84)"><g clip-path="url(#da58ac5009)"><path fill="#ffffff" d="M 120.523438 274.996094 L 165.542969 304.605469 L 114.617188 382.03125 L 69.597656 352.425781 Z M 120.523438 274.996094 " fill-opacity="1" fill-rule="nonzero"/></g></g></g><g clip-path="url(#2216083e35)"><path fill="#67a8ff" d="M 304.339844 -7.03125 L 105.597656 195.539062 L 191.988281 195.539062 L 101.855469 352.21875 L 304.695312 152.441406 L 214.480469 152.441406 L 304.339844 -7.03125 " fill-opacity="1" fill-rule="nonzero"/><path fill="#387edb" d="M 287.3125 152.441406 L 124.574219 312.722656 L 101.855469 352.214844 L 304.695312 152.441406 Z M 304.335938 -7.027344 L 263.507812 34.59375 L 197.097656 152.441406 L 214.480469 152.441406 L 304.335938 -7.027344 " fill-opacity="1" fill-rule="nonzero"/></g></svg>