<svg xmlns="http://www.w3.org/2000/svg" xmlns:xlink="http://www.w3.org/1999/xlink" width="500" zoomAndPan="magnify" viewBox="0 0 375 374.999991" height="500" preserveAspectRatio="xMidYMid meet" version="1.0"><defs><g/></defs><rect x="-37.5" width="450" fill="#ffffff" y="-37.499999" height="449.999989" fill-opacity="1"/><rect x="-37.5" width="450" fill="#ffffff" y="-37.499999" height="449.999989" fill-opacity="1"/><rect x="-37.5" width="450" fill="#000000" y="-37.499999" height="449.999989" fill-opacity="1"/><path fill="#ffffff" d="M 136.039062 221.171875 L 137.972656 223.085938 L 138.167969 223.28125 C 144.191406 229.523438 144.125 239.574219 137.972656 245.730469 C 131.820312 251.886719 121.773438 251.949219 115.535156 245.921875 L 115.339844 245.730469 L 113.40625 243.8125 L 108.132812 238.519531 C 101.917969 232.300781 101.917969 222.117188 108.132812 215.878906 C 114.351562 209.65625 124.550781 209.65625 130.765625 215.878906 Z M 242.789062 133.574219 L 244.664062 131.699219 L 246.8125 129.546875 L 266.542969 109.8125 C 272.761719 103.59375 272.761719 93.410156 266.542969 87.171875 C 260.304688 80.949219 250.125 80.949219 243.910156 87.171875 L 224.179688 106.90625 L 222.03125 109.058594 L 220.15625 110.929688 L 208.839844 122.253906 C 202.625 128.472656 202.625 138.652344 208.839844 144.894531 L 220.15625 156.214844 L 222.179688 158.21875 L 244.058594 180.105469 C 250.277344 186.328125 260.453125 186.328125 266.691406 180.105469 C 272.910156 173.886719 272.910156 163.683594 266.691406 157.464844 L 244.8125 135.574219 Z M 109.039062 87.320312 L 109.039062 87.300781 C 115.253906 81.078125 125.453125 81.078125 131.671875 87.300781 L 266.390625 222.097656 C 272.628906 228.316406 272.628906 238.519531 266.390625 244.738281 C 260.175781 250.960938 249.996094 250.960938 243.757812 244.738281 L 109.039062 109.941406 C 102.820312 103.722656 102.820312 93.539062 109.039062 87.320312 Z M 108.84375 151.847656 C 115.0625 145.625 125.238281 145.625 131.476562 151.847656 L 146.816406 167.191406 L 180.011719 200.402344 L 201.890625 222.292969 C 208.109375 228.511719 208.109375 238.714844 201.890625 244.933594 C 195.652344 251.152344 185.476562 251.152344 179.257812 244.933594 L 157.378906 223.042969 L 124.183594 189.835938 L 108.84375 174.488281 C 102.625 168.269531 102.625 158.066406 108.84375 151.847656 Z M 108.84375 151.847656 " fill-opacity="1" fill-rule="evenodd"/><g fill="#ffffff" fill-opacity="1"><g transform="translate(101.916091, 273.946856)"><g><path d="M 1.671875 0 L 1.671875 -17.28125 L 12.84375 -17.28125 L 12.84375 -14.734375 L 4.84375 -14.734375 L 4.84375 -9.90625 L 11.3125 -9.90625 L 11.3125 -7.40625 L 4.84375 -7.40625 L 4.84375 0 Z M 1.671875 0 "/></g></g></g><g fill="#ffffff" fill-opacity="1"><g transform="translate(119.342307, 273.946856)"><g><path d="M 1.671875 0 L 1.671875 -17.28125 L 4.84375 -17.28125 L 4.84375 -2.46875 L 12.484375 -2.46875 L 12.484375 0 Z M 1.671875 0 "/></g></g></g><g fill="#ffffff" fill-opacity="1"><g transform="translate(136.768522, 273.946856)"><g><path d="M 9.78125 0.296875 C 8.050781 0.296875 6.539062 -0.078125 5.25 -0.828125 C 3.957031 -1.585938 2.941406 -2.640625 2.203125 -3.984375 C 1.472656 -5.328125 1.109375 -6.878906 1.109375 -8.640625 C 1.109375 -10.398438 1.472656 -11.953125 2.203125 -13.296875 C 2.941406 -14.640625 3.957031 -15.6875 5.25 -16.4375 C 6.539062 -17.195312 8.050781 -17.578125 9.78125 -17.578125 C 11.488281 -17.578125 12.992188 -17.195312 14.296875 -16.4375 C 15.597656 -15.6875 16.609375 -14.640625 17.328125 -13.296875 C 18.054688 -11.953125 18.421875 -10.398438 18.421875 -8.640625 C 18.421875 -6.878906 18.054688 -5.328125 17.328125 -3.984375 C 16.609375 -2.640625 15.597656 -1.585938 14.296875 -0.828125 C 12.992188 -0.078125 11.488281 0.296875 9.78125 0.296875 Z M 9.78125 -2.546875 C 11.425781 -2.546875 12.738281 -3.085938 13.71875 -4.171875 C 14.695312 -5.253906 15.1875 -6.742188 15.1875 -8.640625 C 15.1875 -10.535156 14.695312 -12.023438 13.71875 -13.109375 C 12.738281 -14.191406 11.425781 -14.734375 9.78125 -14.734375 C 8.132812 -14.734375 6.816406 -14.191406 5.828125 -13.109375 C 4.835938 -12.023438 4.34375 -10.535156 4.34375 -8.640625 C 4.34375 -6.742188 4.835938 -5.253906 5.828125 -4.171875 C 6.816406 -3.085938 8.132812 -2.546875 9.78125 -2.546875 Z M 9.78125 -2.546875 "/></g></g></g><g fill="#ffffff" fill-opacity="1"><g transform="translate(160.117878, 273.946856)"><g><path d="M 1.671875 0 L 1.671875 -17.28125 L 8.03125 -17.28125 C 9.40625 -17.28125 10.539062 -17.046875 11.4375 -16.578125 C 12.332031 -16.109375 13.003906 -15.472656 13.453125 -14.671875 C 13.898438 -13.878906 14.125 -12.992188 14.125 -12.015625 C 14.125 -10.960938 13.847656 -10 13.296875 -9.125 C 12.742188 -8.257812 11.882812 -7.628906 10.71875 -7.234375 L 14.296875 0 L 10.671875 0 L 7.453125 -6.8125 L 4.84375 -6.8125 L 4.84375 0 Z M 4.84375 -9.140625 L 7.828125 -9.140625 C 8.878906 -9.140625 9.648438 -9.394531 10.140625 -9.90625 C 10.640625 -10.414062 10.890625 -11.085938 10.890625 -11.921875 C 10.890625 -12.742188 10.644531 -13.398438 10.15625 -13.890625 C 9.675781 -14.390625 8.890625 -14.640625 7.796875 -14.640625 L 4.84375 -14.640625 Z M 4.84375 -9.140625 "/></g></g></g><g fill="#ffffff" fill-opacity="1"><g transform="translate(179.32104, 273.946856)"><g><path d="M 1.671875 0 L 1.671875 -17.28125 L 4.84375 -17.28125 L 4.84375 0 Z M 1.671875 0 "/></g></g></g><g fill="#ffffff" fill-opacity="1"><g transform="translate(189.664175, 273.946856)"><g><path d="M 1.671875 0 L 1.671875 -17.28125 L 4.84375 -17.28125 L 12.96875 -5.109375 L 12.96875 -17.28125 L 16.125 -17.28125 L 16.125 0 L 12.96875 0 L 4.84375 -12.140625 L 4.84375 0 Z M 1.671875 0 "/></g></g></g><g fill="#ffffff" fill-opacity="1"><g transform="translate(101.951248, 308.446854)"><g><path d="M 1.671875 0 L 1.671875 -17.28125 L 7.578125 -17.28125 C 9.597656 -17.28125 11.265625 -16.921875 12.578125 -16.203125 C 13.890625 -15.492188 14.859375 -14.488281 15.484375 -13.1875 C 16.117188 -11.894531 16.4375 -10.378906 16.4375 -8.640625 C 16.4375 -6.898438 16.117188 -5.378906 15.484375 -4.078125 C 14.859375 -2.785156 13.890625 -1.78125 12.578125 -1.0625 C 11.265625 -0.351562 9.597656 0 7.578125 0 Z M 4.84375 -2.71875 L 7.4375 -2.71875 C 8.882812 -2.71875 10.023438 -2.953125 10.859375 -3.421875 C 11.703125 -3.890625 12.300781 -4.5625 12.65625 -5.4375 C 13.019531 -6.320312 13.203125 -7.390625 13.203125 -8.640625 C 13.203125 -9.878906 13.019531 -10.941406 12.65625 -11.828125 C 12.300781 -12.710938 11.703125 -13.394531 10.859375 -13.875 C 10.023438 -14.351562 8.882812 -14.59375 7.4375 -14.59375 L 4.84375 -14.59375 Z M 4.84375 -2.71875 "/></g></g></g><g fill="#ffffff" fill-opacity="1"><g transform="translate(123.326223, 308.446854)"><g><path d="M 9.78125 0.296875 C 8.050781 0.296875 6.539062 -0.078125 5.25 -0.828125 C 3.957031 -1.585938 2.941406 -2.640625 2.203125 -3.984375 C 1.472656 -5.328125 1.109375 -6.878906 1.109375 -8.640625 C 1.109375 -10.398438 1.472656 -11.953125 2.203125 -13.296875 C 2.941406 -14.640625 3.957031 -15.6875 5.25 -16.4375 C 6.539062 -17.195312 8.050781 -17.578125 9.78125 -17.578125 C 11.488281 -17.578125 12.992188 -17.195312 14.296875 -16.4375 C 15.597656 -15.6875 16.609375 -14.640625 17.328125 -13.296875 C 18.054688 -11.953125 18.421875 -10.398438 18.421875 -8.640625 C 18.421875 -6.878906 18.054688 -5.328125 17.328125 -3.984375 C 16.609375 -2.640625 15.597656 -1.585938 14.296875 -0.828125 C 12.992188 -0.078125 11.488281 0.296875 9.78125 0.296875 Z M 9.78125 -2.546875 C 11.425781 -2.546875 12.738281 -3.085938 13.71875 -4.171875 C 14.695312 -5.253906 15.1875 -6.742188 15.1875 -8.640625 C 15.1875 -10.535156 14.695312 -12.023438 13.71875 -13.109375 C 12.738281 -14.191406 11.425781 -14.734375 9.78125 -14.734375 C 8.132812 -14.734375 6.816406 -14.191406 5.828125 -13.109375 C 4.835938 -12.023438 4.34375 -10.535156 4.34375 -8.640625 C 4.34375 -6.742188 4.835938 -5.253906 5.828125 -4.171875 C 6.816406 -3.085938 8.132812 -2.546875 9.78125 -2.546875 Z M 9.78125 -2.546875 "/></g></g></g><g fill="#ffffff" fill-opacity="1"><g transform="translate(146.675579, 308.446854)"><g><path d="M 1.671875 0 L 1.671875 -17.28125 L 8.609375 -17.28125 C 10.410156 -17.28125 11.78125 -16.863281 12.71875 -16.03125 C 13.664062 -15.195312 14.140625 -14.132812 14.140625 -12.84375 C 14.140625 -11.75 13.847656 -10.878906 13.265625 -10.234375 C 12.679688 -9.585938 11.972656 -9.144531 11.140625 -8.90625 C 12.117188 -8.707031 12.929688 -8.21875 13.578125 -7.4375 C 14.222656 -6.65625 14.546875 -5.75 14.546875 -4.71875 C 14.546875 -3.351562 14.050781 -2.222656 13.0625 -1.328125 C 12.070312 -0.441406 10.671875 0 8.859375 0 Z M 4.84375 -10.015625 L 8.140625 -10.015625 C 9.035156 -10.015625 9.71875 -10.21875 10.1875 -10.625 C 10.664062 -11.039062 10.90625 -11.628906 10.90625 -12.390625 C 10.90625 -13.117188 10.671875 -13.691406 10.203125 -14.109375 C 9.734375 -14.523438 9.03125 -14.734375 8.09375 -14.734375 L 4.84375 -14.734375 Z M 4.84375 -2.5625 L 8.375 -2.5625 C 9.3125 -2.5625 10.035156 -2.78125 10.546875 -3.21875 C 11.066406 -3.65625 11.328125 -4.269531 11.328125 -5.0625 C 11.328125 -5.863281 11.054688 -6.492188 10.515625 -6.953125 C 9.972656 -7.421875 9.238281 -7.65625 8.3125 -7.65625 L 4.84375 -7.65625 Z M 4.84375 -2.5625 "/></g></g></g><g fill="#ffffff" fill-opacity="1"><g transform="translate(166.076174, 308.446854)"><g><path d="M 1.671875 0 L 1.671875 -17.28125 L 4.84375 -17.28125 L 4.84375 0 Z M 1.671875 0 "/></g></g></g><g fill="#ffffff" fill-opacity="1"><g transform="translate(176.41931, 308.446854)"><g><path d="M 1.671875 0 L 1.671875 -17.28125 L 4.84375 -17.28125 L 12.96875 -5.109375 L 12.96875 -17.28125 L 16.125 -17.28125 L 16.125 0 L 12.96875 0 L 4.84375 -12.140625 L 4.84375 0 Z M 1.671875 0 "/></g></g></g><g fill="#ffffff" fill-opacity="1"><g transform="translate(198.041077, 308.446854)"><g><path d="M 9.5 0.296875 C 7.757812 0.296875 6.265625 -0.078125 5.015625 -0.828125 C 3.765625 -1.578125 2.800781 -2.617188 2.125 -3.953125 C 1.445312 -5.296875 1.109375 -6.847656 1.109375 -8.609375 C 1.109375 -10.367188 1.445312 -11.925781 2.125 -13.28125 C 2.800781 -14.632812 3.765625 -15.6875 5.015625 -16.4375 C 6.265625 -17.195312 7.757812 -17.578125 9.5 -17.578125 C 11.570312 -17.578125 13.269531 -17.0625 14.59375 -16.03125 C 15.925781 -15 16.753906 -13.554688 17.078125 -11.703125 L 13.609375 -11.703125 C 13.390625 -12.640625 12.929688 -13.375 12.234375 -13.90625 C 11.535156 -14.445312 10.609375 -14.71875 9.453125 -14.71875 C 7.859375 -14.71875 6.609375 -14.171875 5.703125 -13.078125 C 4.796875 -11.992188 4.34375 -10.503906 4.34375 -8.609375 C 4.34375 -6.722656 4.796875 -5.238281 5.703125 -4.15625 C 6.609375 -3.082031 7.859375 -2.546875 9.453125 -2.546875 C 10.609375 -2.546875 11.535156 -2.796875 12.234375 -3.296875 C 12.929688 -3.796875 13.390625 -4.488281 13.609375 -5.375 L 17.078125 -5.375 C 16.753906 -3.601562 15.925781 -2.210938 14.59375 -1.203125 C 13.269531 -0.203125 11.570312 0.296875 9.5 0.296875 Z M 9.5 0.296875 "/></g></g></g><g fill="#ffffff" fill-opacity="1"><g transform="translate(220.057723, 308.446854)"><g><path d="M 1.671875 0 L 1.671875 -17.28125 L 4.84375 -17.28125 L 4.84375 0 Z M 1.671875 0 "/></g></g></g><g fill="#ffffff" fill-opacity="1"><g transform="translate(230.400858, 308.446854)"><g><path d="M 8.34375 0.296875 C 7.070312 0.296875 5.925781 0.046875 4.90625 -0.453125 C 3.882812 -0.953125 3.070312 -1.710938 2.46875 -2.734375 C 1.875 -3.753906 1.578125 -5.046875 1.578125 -6.609375 L 1.578125 -17.28125 L 4.734375 -17.28125 L 4.734375 -6.59375 C 4.734375 -5.238281 5.054688 -4.234375 5.703125 -3.578125 C 6.359375 -2.921875 7.265625 -2.59375 8.421875 -2.59375 C 9.554688 -2.59375 10.453125 -2.921875 11.109375 -3.578125 C 11.765625 -4.234375 12.09375 -5.238281 12.09375 -6.59375 L 12.09375 -17.28125 L 15.25 -17.28125 L 15.25 -6.609375 C 15.25 -5.046875 14.9375 -3.753906 14.3125 -2.734375 C 13.6875 -1.710938 12.851562 -0.953125 11.8125 -0.453125 C 10.769531 0.046875 9.613281 0.296875 8.34375 0.296875 Z M 8.34375 0.296875 "/></g></g></g><g fill="#ffffff" fill-opacity="1"><g transform="translate(251.035436, 308.446854)"><g><path d="M 9.5 0.296875 C 7.757812 0.296875 6.265625 -0.078125 5.015625 -0.828125 C 3.765625 -1.578125 2.800781 -2.617188 2.125 -3.953125 C 1.445312 -5.296875 1.109375 -6.847656 1.109375 -8.609375 C 1.109375 -10.367188 1.445312 -11.925781 2.125 -13.28125 C 2.800781 -14.632812 3.765625 -15.6875 5.015625 -16.4375 C 6.265625 -17.195312 7.757812 -17.578125 9.5 -17.578125 C 11.570312 -17.578125 13.269531 -17.0625 14.59375 -16.03125 C 15.925781 -15 16.753906 -13.554688 17.078125 -11.703125 L 13.609375 -11.703125 C 13.390625 -12.640625 12.929688 -13.375 12.234375 -13.90625 C 11.535156 -14.445312 10.609375 -14.71875 9.453125 -14.71875 C 7.859375 -14.71875 6.609375 -14.171875 5.703125 -13.078125 C 4.796875 -11.992188 4.34375 -10.503906 4.34375 -8.609375 C 4.34375 -6.722656 4.796875 -5.238281 5.703125 -4.15625 C 6.609375 -3.082031 7.859375 -2.546875 9.453125 -2.546875 C 10.609375 -2.546875 11.535156 -2.796875 12.234375 -3.296875 C 12.929688 -3.796875 13.390625 -4.488281 13.609375 -5.375 L 17.078125 -5.375 C 16.753906 -3.601562 15.925781 -2.210938 14.59375 -1.203125 C 13.269531 -0.203125 11.570312 0.296875 9.5 0.296875 Z M 9.5 0.296875 "/></g></g></g></svg>